<?xml version="1.0" encoding="utf-8"?>
<!-- Generator: Adobe Illustrator 27.6.1, SVG Export Plug-In . SVG Version: 6.00 Build 0)  -->
<svg version="1.1" id="Layer_1" xmlns="http://www.w3.org/2000/svg" xmlns:xlink="http://www.w3.org/1999/xlink" x="0px" y="0px"
	 viewBox="0 0 273 366.3" style="enable-background:new 0 0 273 366.3;" xml:space="preserve">
<style type="text/css">
	.st0{fill:#FFFFFF;}
</style>
<g>
	<path class="st0" d="M212.4,0.2c0.2,0.1,0.2,0.3,0.4,0.3c2.3,0.6,4.3,1.8,5.8,3.6c0.7,0.9,1.2,2,1.7,3.1c1.2,2.6,2.3,5.1,3.3,7.7
		c1.5,3.7,2.8,7.4,4.3,11.1c0.6,1.4,0.3,2.5-0.3,3.8c-1.8,3.9-3.5,7.9-5.3,11.8c-1,2.2-2,4.4-3,6.6c-1.5,3.4-3,6.7-4.5,10.1
		c-1.2,2.7-2.4,5.4-3.6,8.1c-1.6,3.6-3.2,7.3-4.8,10.9c-1.1,2.4-2.2,4.9-3.2,7.3c-1.6,3.7-3.3,7.4-4.9,11.1
		c-1.4,3.1-2.8,6.1-4.1,9.2c-1.5,3.4-3,6.8-4.5,10.2c-1.3,2.9-2.6,5.9-3.9,8.8c-1.5,3.4-3,6.9-4.5,10.3c-1.1,2.5-2.2,4.9-3.3,7.3
		c-1.6,3.6-3.1,7.1-4.7,10.7c-1.1,2.5-2.2,5-3.3,7.5c-1.5,3.5-3.1,7-4.6,10.5c-1.1,2.6-2.3,5.1-3.4,7.6c-1.9,4.2-3.7,8.4-5.5,12.5
		c-1.4,3.2-2.9,6.3-4.3,9.5c-1.6,3.6-3.2,7.3-4.8,10.9c-1.3,2.9-2.6,5.7-3.9,8.6c-1.7,3.9-3.4,7.7-5.1,11.6
		c-0.5,1.1-1.1,2.3-1.6,3.5c-0.4-0.9-0.8-1.8-1.2-2.6c-1.1-2.4-2.1-4.8-3.2-7.1c-1.7-3.8-3.4-7.5-5.1-11.3
		c-1.8-3.9-3.5-7.9-5.3-11.9c-1.4-3.2-2.8-6.3-4.2-9.4c-1.6-3.6-3.2-7.3-4.8-10.9c-1.4-3.1-2.8-6.1-4.1-9.2c-1.8-4-3.5-8-5.3-12
		c-1.1-2.6-2.3-5.1-3.4-7.7c-1.6-3.5-3.1-7-4.6-10.6c-1.1-2.5-2.2-5-3.3-7.5c-1.6-3.6-3.2-7.2-4.8-10.9c-1.1-2.6-2.3-5.1-3.4-7.7
		c-1.5-3.4-3-6.9-4.5-10.3c-0.9-2.1-1.9-4.2-2.8-6.3c-1.6-3.7-3.2-7.3-4.9-11c-1.4-3.1-2.7-6.1-4.1-9.2c-1.6-3.6-3.2-7.3-4.8-10.9
		c-1.2-2.7-2.5-5.5-3.7-8.2c-1.7-3.8-3.4-7.6-5.1-11.4c-1.2-2.7-2.4-5.4-3.6-8.1c-1.8-3.9-3.6-7.9-5.3-11.8c-0.2-0.4-0.1-1.1,0-1.6
		c1.2-3.2,2.5-6.5,3.8-9.7c1-2.5,2.1-4.9,3.2-7.3c0.7-1.6,1.6-3.2,2.3-4.8C55.3,3,57,1.8,59.2,1c0.6-0.2,1.2-0.5,1.7-0.7
		C111.3,0.2,161.8,0.2,212.4,0.2z"/>
	<path class="st0" d="M2.9,217.7c0.1-0.2,0.3-0.3,0.3-0.4c0.7-3.3,1.5-6.6,2.2-9.9c1.2-5.3,2.3-10.6,3.5-15.8c0.6-2.9,1.3-5.8,2-8.8
		c1-4.3,1.9-8.6,2.9-13c0.6-2.7,1.2-5.4,1.8-8.1c1-4.3,1.9-8.7,2.9-13c0.5-2.4,1.1-4.8,1.6-7.2c0.5-2.3,1.1-4.7,1.6-7
		c0-0.1,0.1-0.1,0.1-0.3c1,1.5,2,2.8,2.9,4.2c3.1,4.6,6.2,9.2,9.3,13.8c1.9,2.8,3.8,5.6,5.7,8.3c2.9,4.3,5.8,8.6,8.7,12.9
		c2.9,4.2,5.7,8.4,8.6,12.6c2.9,4.2,5.7,8.4,8.6,12.6c2.9,4.2,5.7,8.4,8.6,12.6s5.7,8.4,8.6,12.6c2.9,4.2,5.7,8.4,8.6,12.6
		c1.9,2.8,3.8,5.6,5.7,8.4c2.9,4.3,5.8,8.6,8.8,12.9c2.9,4.2,5.7,8.4,8.6,12.6c2.9,4.2,5.7,8.4,8.6,12.6c2.9,4.2,5.7,8.4,8.6,12.6
		c2.6,3.7,5.1,7.5,7.7,11.3c1.2-1.7,2.3-3.4,3.4-5.1c2.9-4.3,5.8-8.5,8.6-12.8c1.9-2.8,3.9-5.6,5.8-8.5c2.9-4.3,5.8-8.5,8.6-12.8
		c1.9-2.8,3.8-5.5,5.7-8.3c2.9-4.3,5.8-8.6,8.7-12.9c3-4.4,5.9-8.7,8.9-13.1c2.9-4.2,5.7-8.4,8.6-12.6c1.9-2.8,3.8-5.5,5.6-8.3
		c2.9-4.3,5.9-8.6,8.8-13c2.9-4.2,5.7-8.4,8.6-12.6c2.9-4.2,5.7-8.4,8.6-12.6c3-4.4,5.9-8.8,8.9-13.2c2.9-4.2,5.7-8.4,8.6-12.6
		c2.9-4.2,5.7-8.5,8.6-12.7c0.4-0.6,0.8-1.1,1.4-1.8c0.3,1.3,0.6,2.5,0.9,3.8c0.6,2.5,1.1,5,1.6,7.5c0.9,4.1,1.8,8.3,2.7,12.4
		c0.7,2.9,1.3,5.8,2,8.8c1,4.3,1.9,8.6,2.9,13c0.7,2.9,1.3,5.8,2,8.8c0.9,4.1,1.8,8.2,2.7,12.3c0.8,3.4,1.5,6.8,2.3,10.2
		c0.5,2.2,0.9,4.3,1.4,6.5c0,0.1,0.1,0.2,0.2,0.2c0.1,1.8,0.1,3.7,0,5.5c-0.1,0.2-0.2,0.3-0.3,0.4c-0.5,1.2-0.8,2.5-1.6,3.5
		c-1.5,2-3.2,3.9-4.9,5.7c-1.8,2-3.6,3.9-5.5,5.8c-1.8,2-3.7,3.9-5.5,5.9c-1.9,2-3.9,4.1-5.8,6.1c-1.8,1.9-3.7,3.9-5.5,5.8
		c-2,2.1-4,4.3-6,6.4c-1.8,1.9-3.7,3.9-5.5,5.8c-2,2.1-4,4.2-6,6.3c-1.8,2-3.7,3.9-5.5,5.9c-2,2.1-4,4.2-5.9,6.3
		c-1.9,2-3.7,3.9-5.6,5.9c-2,2.1-4,4.2-5.9,6.3c-1.8,2-3.7,3.9-5.5,5.9c-2,2.1-4,4.2-5.9,6.3c-1.9,2-3.9,4.1-5.8,6.1
		c-2,2.1-3.9,4.1-5.9,6.2c-1.9,2-3.8,4.1-5.8,6.1c-1.9,2-3.8,4-5.6,6c-2,2.1-3.9,4.1-5.9,6.2c-2,2.1-3.9,4.1-5.9,6.2
		c-1.9,2-3.8,4.1-5.8,6.1c-2.6,2.7-5.1,5.4-7.7,8c-0.2,0.2-0.4,0.6-0.7,0.8c-1.1,1.1-2.1,2.3-3.7,2.8c-0.2,0.1-0.3,0.3-0.4,0.5
		c-1.4,0-2.8,0-4.3-0.1c-1.6-0.8-2.9-1.7-4.1-3c-1.1-1.3-2.3-2.5-3.5-3.8c-2-2.1-4-4.3-6.1-6.4c-1.9-2-3.8-4.1-5.8-6.1
		c-2-2.1-4.1-4.3-6.1-6.4c-1.9-2-3.8-4-5.7-6c-2-2.1-4-4.2-5.9-6.3c-1.9-2-3.8-4.1-5.8-6.1c-2-2.1-4-4.2-5.9-6.3c-1.9-2-3.8-4-5.7-6
		c-2-2.1-4-4.2-5.9-6.3c-1.9-2-3.8-4.1-5.8-6.1c-2-2.1-4-4.2-5.9-6.3c-1.9-2-3.8-4-5.7-6c-2.1-2.2-4.2-4.4-6.3-6.7
		c-1.8-1.9-3.5-3.8-5.3-5.6c-2-2.1-3.9-4.1-5.9-6.2c-1.9-2-3.8-4-5.7-6c-2-2.1-4-4.2-6-6.3c-1.8-2-3.7-3.9-5.5-5.9
		c-2.1-2.2-4.3-4.5-6.4-6.7c-1.6-1.7-3.3-3.5-4.9-5.2c-2.2-2.4-4.4-4.8-6.7-7.1c-1.7-1.7-2.9-3.7-3.5-6.1c0-0.1-0.2-0.2-0.3-0.3
		C2.9,221.4,2.9,219.6,2.9,217.7L2.9,217.7z"/>
</g>
</svg>
